<svg width="9" height="11" viewBox="0 0 9 11" fill="none" xmlns="http://www.w3.org/2000/svg">
<path d="M8.30907 4.50314C8.46532 3.44064 7.65907 2.86564 6.54657 2.48439L6.90907 1.04064L6.03407 0.821887L5.68407 2.22814C5.45282 2.17189 5.21532 2.11564 4.97782 2.06564L5.32782 0.653137L4.45282 0.434387L4.09657 1.87189C3.90282 1.82814 3.71532 1.78439 3.53407 1.74064V1.73439L2.32157 1.43439L2.09032 2.37189C2.09032 2.37189 2.74032 2.52189 2.72782 2.52814C3.08407 2.61564 3.14657 2.85314 3.13407 3.04064L2.72157 4.68439C2.74657 4.69064 2.77782 4.69689 2.81532 4.71564C2.78407 4.70939 2.75282 4.70314 2.72157 4.69064L2.14657 6.99064C2.10282 7.09689 1.99032 7.25939 1.74657 7.19689C1.75282 7.20939 1.10907 7.04064 1.10907 7.04064L0.67157 8.04689L1.81532 8.33439C2.02782 8.39064 2.23407 8.44064 2.44032 8.49689L2.07782 9.95314L2.95282 10.1719L3.31532 8.72814C3.55282 8.79064 3.79032 8.85314 4.01532 8.90939L3.65907 10.3469L4.53407 10.5656L4.89657 9.10939C6.39657 9.39064 7.52157 9.27814 7.99032 7.92189C8.37157 6.83439 7.97157 6.20314 7.18407 5.79064C7.76532 5.65939 8.19657 5.27814 8.30907 4.50314ZM6.30282 7.31564C6.03407 8.40314 4.19657 7.81564 3.60282 7.66564L4.08407 5.73439C4.67782 5.88439 6.59032 6.17814 6.30282 7.31564ZM6.57782 4.48439C6.32782 5.47814 4.80282 4.97189 4.30907 4.84689L4.74657 3.09689C5.24032 3.22189 6.83407 3.45314 6.57782 4.48439Z" fill="white"/>
</svg>
