<svg width="34" height="20" viewBox="0 0 34 20" fill="none" xmlns="http://www.w3.org/2000/svg">
<path fill-rule="evenodd" clip-rule="evenodd" d="M11.0975 3.86665L4.60071 9.99999L11.0975 16.1333H30.8001V3.86665H11.0975ZM10.4881 0.799988C10.0967 0.799988 9.72008 0.949665 9.43547 1.21835L1.31448 8.88502C0.673494 9.49015 0.673494 10.5098 1.31448 11.115L9.43547 18.7816C9.72008 19.0503 10.0967 19.2 10.4881 19.2H32.3334C33.1803 19.2 33.8668 18.5135 33.8668 17.6667V2.33332C33.8668 1.48648 33.1803 0.799988 32.3334 0.799988H10.4881Z" fill="white"/>
<path d="M20.001 12.1027L18.7195 13.3842C18.1207 13.983 17.1498 13.983 16.551 13.3842C15.9522 12.7854 15.9522 11.8146 16.551 11.2158L17.8326 9.9342L16.551 8.65268C15.9522 8.05387 15.9522 7.08302 16.551 6.48422C17.1498 5.88541 18.1207 5.88541 18.7195 6.48422L20.001 7.76574L21.2825 6.48422C21.8813 5.88541 22.8522 5.88541 23.451 6.48422C24.0498 7.08302 24.0498 8.05387 23.451 8.65268L22.1695 9.9342L23.451 11.2158C24.0498 11.8146 24.0498 12.7854 23.451 13.3842C22.8522 13.983 21.8814 13.983 21.2826 13.3842L20.001 12.1027Z" fill="white"/>
</svg>
