<svg width="28" height="31" viewBox="0 0 28 31" fill="none" xmlns="http://www.w3.org/2000/svg">
<path fill-rule="evenodd" clip-rule="evenodd" d="M14.5 6.50002C16.4891 6.50002 18.3968 7.29019 19.8033 8.69671C20.8533 9.74671 21.5598 11.076 21.8505 12.5099C22.0151 13.3219 21.3284 14 20.5 14C19.6716 14 19.0234 13.3104 18.7523 12.5276C18.5315 11.8901 18.1681 11.3042 17.682 10.818C16.8381 9.97412 15.6935 9.50002 14.5 9.50002C13.3065 9.50002 12.1619 9.97412 11.318 10.818C10.4741 11.6619 10 12.8065 10 14V18.5C10 21.8525 8.77001 25.016 6.59351 27.4655C6.41875 27.6551 6.12252 27.6647 5.93586 27.4868L5.18125 26.7676C4.58628 26.2006 4.57446 25.2635 5.05226 24.5947C6.22632 22.9515 6.90573 20.9935 6.99101 18.9545L7.00001 18.5V14C7.00001 12.0109 7.79019 10.1032 9.19671 8.69671C10.6032 7.29019 12.5109 6.50002 14.5 6.50002ZM14.5 0.500015C18.0804 0.500015 21.5142 1.92233 24.046 4.45407C26.5777 6.98581 28 10.4196 28 14V18.5C28 21.047 27.697 23.555 27.1045 25.985C26.9898 26.4297 26.5336 26.6947 26.0904 26.574L25.4388 26.3964C24.6448 26.18 24.1807 25.3614 24.3549 24.5571C24.7233 22.8569 24.9355 21.1172 24.988 19.352L25 18.5V14C25 12.0513 24.4577 10.1411 23.4338 8.48302C22.4099 6.82499 20.9448 5.4846 19.2025 4.61187C17.4601 3.73914 15.5093 3.3685 13.5683 3.54142C12.0677 3.67511 10.6187 4.1296 9.31734 4.86819C8.65768 5.24257 7.81402 5.19274 7.27787 4.65622C6.6357 4.01359 6.69181 2.94832 7.46686 2.47436C9.57465 1.18541 12.0074 0.496318 14.5 0.500015ZM2.97504 6.96576C3.44862 6.19122 4.51313 6.13524 5.1553 6.77696C5.69215 7.31343 5.7413 8.15782 5.36615 8.81756C4.53184 10.2848 4.06202 11.9385 4.00601 13.6385L4.00001 14L4.00601 17C4.00601 18.68 3.61001 20.3045 2.86301 21.7655C2.73475 22.004 2.4352 22.0898 2.20009 21.9556L1.31029 21.4474C0.5998 21.0416 0.369189 20.1383 0.626696 19.3617C0.832345 18.7415 0.95591 18.0947 0.992514 17.438L1.00601 17V14C0.998771 11.5073 1.68618 9.07368 2.97504 6.96576Z" fill="white"/>
<path d="M20.5 17C21.3284 17 22 17.6716 22 18.5C22 22.655 21.004 26.6675 19.1275 30.269C18.9402 30.6156 18.5056 30.7421 18.1615 30.5503L17.4683 30.1638C16.7494 29.763 16.4964 28.8571 16.8487 28.1132C18.1613 25.3417 18.8966 22.3162 18.9895 19.184L19 18.5C19 17.6716 19.6716 17 20.5 17Z" fill="white"/>
<path d="M13 14C13 13.1716 13.6716 12.5 14.5 12.5C15.3284 12.5 16 13.1716 16 14V18.5L15.9925 19.0685C15.8791 23.175 14.4658 27.1397 11.956 30.392C11.7653 30.6314 11.4157 30.669 11.1785 30.4755L10.4415 29.8745C9.80289 29.3537 9.7146 28.4168 10.1766 27.7345C11.9115 25.1722 12.8927 22.1621 12.991 19.049L13 18.5V14Z" fill="white"/>
</svg>
