<svg width="48" height="49" viewBox="0 0 48 49" fill="none" xmlns="http://www.w3.org/2000/svg">
<path d="M0 8C0 3.58172 3.58172 0 8 0H40C44.4183 0 48 3.58172 48 8V41C48 45.4183 44.4183 49 40 49H8C3.58172 49 0 45.4183 0 41V8Z" fill="#385AD3"/>
<path fill-rule="evenodd" clip-rule="evenodd" d="M38.3335 26.614L38.3335 30.2632L33.7502 30.2632L33.7502 26.614L26.1121 26.614C25.1062 30.294 21.7249 33 17.7085 33C12.899 33 9.00016 29.1198 9.00016 24.3333C9.00016 19.5469 12.899 15.6667 17.7085 15.6667C21.7249 15.6667 25.1062 18.3726 26.1121 22.0526L33.7502 22.0526L38.3335 22.0526L38.3335 26.614ZM13.5835 24.3333C13.5835 22.0661 15.4303 20.2281 17.7085 20.2281C19.9867 20.2281 21.8335 22.0661 21.8335 24.3333C21.8335 26.6006 19.9867 28.4386 17.7085 28.4386C15.4303 28.4386 13.5835 26.6006 13.5835 24.3333Z" fill="white"/>
</svg>
