<svg width="203" height="203" viewBox="0 0 203 203" fill="none" xmlns="http://www.w3.org/2000/svg">
<circle cx="101.5" cy="101.5" r="85.5" stroke="#385AD3" stroke-width="2"/>
<path fill-rule="evenodd" clip-rule="evenodd" d="M90.0667 93.8V85.6C90.0667 79.5616 94.9617 74.6666 101 74.6666C107.038 74.6666 111.933 79.5616 111.933 85.6V93.8H117.4C118.91 93.8 120.133 95.0237 120.133 96.5333V123.867C120.133 125.376 118.91 126.6 117.4 126.6H84.6C83.0905 126.6 81.8667 125.376 81.8667 123.867V96.5333C81.8667 95.0237 83.0905 93.8 84.6 93.8H90.0667ZM109.2 85.6V93.8H92.8V85.6C92.8 81.0712 96.4713 77.4 101 77.4C105.529 77.4 109.2 81.0712 109.2 85.6ZM84.6 96.5333V123.867H117.4V96.5333H84.6Z" fill="white"/>
</svg>
