<svg width="18" height="18" viewBox="0 0 18 18" fill="none" xmlns="http://www.w3.org/2000/svg">
<path fill-rule="evenodd" clip-rule="evenodd" d="M15.8293 2C15.4175 0.834808 14.3062 0 13 0C11.6887 0 10.5738 0.841357 10.1659 2.0137C10.1119 2.00469 10.0565 2 10 2H1C0.447715 2 0 2.44772 0 3C0 3.55228 0.447715 4 1 4H10C10.0565 4 10.1119 3.99531 10.1659 3.9863C10.5738 5.15864 11.6887 6 13 6C14.3062 6 15.4175 5.16519 15.8293 4H17C17.5523 4 18 3.55228 18 3C18 2.44772 17.5523 2 17 2H15.8293ZM14 3C14 3.55228 13.5523 4 13 4C12.4477 4 12 3.55228 12 3C12 2.44772 12.4477 2 13 2C13.5523 2 14 2.44772 14 3Z" fill="white"/>
<path fill-rule="evenodd" clip-rule="evenodd" d="M8 8C7.94348 8 7.88806 8.00469 7.8341 8.0137C7.42615 6.84135 6.31133 6 5 6C3.68867 6 2.57385 6.84135 2.1659 8.0137C2.11194 8.00469 2.05652 8 2 8H1C0.447715 8 0 8.44771 0 9C0 9.55229 0.447715 10 1 10H2C2.05652 10 2.11194 9.99531 2.1659 9.9863C2.57385 11.1586 3.68867 12 5 12C6.31133 12 7.42615 11.1586 7.8341 9.9863C7.88806 9.99531 7.94348 10 8 10H17C17.5523 10 18 9.55229 18 9C18 8.44771 17.5523 8 17 8H8ZM5 10C5.55228 10 6 9.55228 6 9C6 8.44772 5.55228 8 5 8C4.44772 8 4 8.44772 4 9C4 9.55228 4.44772 10 5 10Z" fill="white"/>
<path fill-rule="evenodd" clip-rule="evenodd" d="M1 14C0.447715 14 0 14.4477 0 15C0 15.5523 0.447715 16 1 16H10C10.0565 16 10.1119 15.9953 10.1659 15.9863C10.5738 17.1586 11.6887 18 13 18C14.3062 18 15.4175 17.1652 15.8293 16H17C17.5523 16 18 15.5523 18 15C18 14.4477 17.5523 14 17 14H15.8293C15.4175 12.8348 14.3062 12 13 12C11.6887 12 10.5738 12.8414 10.1659 14.0137C10.1119 14.0047 10.0565 14 10 14H1ZM14 15C14 14.4477 13.5523 14 13 14C12.4477 14 12 14.4477 12 15C12 15.5523 12.4477 16 13 16C13.5523 16 14 15.5523 14 15Z" fill="white"/>
</svg>
