<svg width="40" height="53" viewBox="0 0 40 53" fill="none" xmlns="http://www.w3.org/2000/svg">
<path fill-rule="evenodd" clip-rule="evenodd" d="M9.0667 19.8V11.6C9.0667 5.56169 13.9617 0.666672 20 0.666672C26.0383 0.666672 30.9334 5.56169 30.9334 11.6V19.8H36.4C37.9096 19.8 39.1334 21.0238 39.1334 22.5333V49.8667C39.1334 51.3762 37.9096 52.6 36.4 52.6H3.60003C2.09046 52.6 0.866699 51.3762 0.866699 49.8667V22.5333C0.866699 21.0238 2.09045 19.8 3.60003 19.8H9.0667ZM28.2 11.6V19.8H11.8V11.6C11.8 7.07127 15.4713 3.4 20 3.4C24.5288 3.4 28.2 7.07127 28.2 11.6ZM3.60003 22.5333V49.8667H36.4V22.5333H3.60003Z" fill="white"/>
</svg>
